<svg width="16" height="16" viewBox="0 0 16 16" fill="none" xmlns="http://www.w3.org/2000/svg">
<path d="M11.2788 4.81265L5.38502 8.4964C5.48837 8.82543 5.52242 9.17231 5.48502 9.51515L10.9525 11.5652C11.3018 11.0669 11.8208 10.7131 12.4123 10.5701C13.0037 10.4271 13.627 10.5048 14.1654 10.7885C14.7037 11.0722 15.12 11.5425 15.3364 12.1113C15.5527 12.68 15.5542 13.3082 15.3405 13.8779C15.1269 14.4477 14.7127 14.9199 14.1758 15.2062C13.6388 15.4925 13.0159 15.573 12.4237 15.4329C11.8316 15.2927 11.3109 14.9413 10.9593 14.4447C10.6077 13.9481 10.4493 13.3402 10.5138 12.7352L5.04752 10.6852C4.7546 11.103 4.34085 11.4211 3.86182 11.5969C3.3828 11.7727 2.86146 11.7978 2.36781 11.6686C1.87416 11.5395 1.43184 11.2624 1.10026 10.8745C0.768686 10.4867 0.563728 10.0067 0.512916 9.49895C0.462105 8.99122 0.567872 8.48011 0.816014 8.03424C1.06416 7.58838 1.44279 7.22913 1.90106 7.00473C2.35933 6.78033 2.87529 6.70153 3.37965 6.77892C3.88401 6.85631 4.35261 7.08618 4.72252 7.43765L10.615 3.7539C10.4318 3.17367 10.4664 2.54652 10.7125 1.99001C10.9585 1.4335 11.3991 0.985831 11.9516 0.730924C12.5042 0.476016 13.1307 0.431367 13.7138 0.605346C14.2968 0.779325 14.7964 1.15999 15.1189 1.67598C15.4414 2.19197 15.5647 2.80787 15.4656 3.40823C15.3664 4.00858 15.0518 4.55218 14.5805 4.93712C14.1093 5.32206 13.5138 5.52192 12.9058 5.49924C12.2977 5.47656 11.7188 5.23289 11.2775 4.8139L11.2788 4.81265Z" fill="white"/>
</svg>
